<svg xmlns="http://www.w3.org/2000/svg" width="21" height="15" viewBox="0 0 21 15">
  <g fill="none" fill-rule="evenodd">
    <rect width="21" height="15" fill="#3A7DCE" fill-rule="nonzero"/>
    <path fill="#FFFFFF" fill-rule="nonzero" d="M5.28976815,7.21388105 C5.16719758,6.96867944 5.16719758,6.96867944 5.16719758,6.72350806 C5.10589718,6.72350806 5.09440524,6.73503024 5.05896169,6.72538306 C5.02351815,6.71582661 5.01012097,6.95147177 4.89517137,6.90547379 C4.87602823,6.88248992 4.9775504,6.71204637 4.86740927,6.64118952 C4.83196573,6.61811492 4.87602823,6.47830645 4.86069556,6.41700605 C4.86069556,6.41700605 4.7208871,6.48976815 4.61552419,6.23313508 C4.56378024,6.16605847 4.49292339,6.29440524 4.49292339,6.29440524 C4.49292339,6.29440524 4.52355847,6.37294355 4.46803427,6.39211694 C4.38949597,6.33462702 4.33200605,6.36477823 4.23241935,6.28578629 C4.13280242,6.20676411 4.25349798,6.11628024 4.06385081,6.04923387 C4.18645161,5.7427621 4.18645161,5.80403226 4.49292339,5.68146169 C4.30902218,5.55886089 4.30902218,5.55886089 4.18645161,5.37495968 C4.0025504,5.31365927 3.94125,5.25238911 3.75734879,5.12978831 C3.51217742,4.82328629 3.38957661,4.21034274 3.38957661,3.78127016 C3.54474798,3.63759073 3.75734879,4.27164315 4.06385081,4.45551411 L4.49292339,4.63941532 C4.73809476,4.76201613 4.79939516,4.88458669 4.98329637,5.0071875 L5.53496976,5.19108871 C5.78014113,5.37495968 5.90274194,5.62016129 6.08664315,5.68146169 C6.28584677,5.68146169 6.32422379,5.56672379 6.38809476,5.55958669 C6.74845766,5.54110887 6.93235887,5.4946875 7.00418347,5.38645161 C7.07694556,5.3002621 7.25126008,5.43626008 7.74163306,5.25238911 L7.6803629,5.0071875 C7.6803629,5.0071875 7.81061492,4.89991935 7.98683468,4.9458871 C7.98205645,4.83384073 7.97053427,4.53502016 8.14412298,4.40020161 C8.0386996,4.28960685 8.10943548,4.21034274 8.10943548,4.21034274 C8.10943548,4.21034274 8.20714718,4.11647177 8.21860887,4.06666331 C8.1669254,3.79657258 8.26345766,3.79239919 8.28511089,3.71292339 C8.30673387,3.63347782 8.20173387,3.66069556 8.23134073,3.55115927 C8.2608871,3.44159274 8.43846774,3.41558468 8.4622379,3.32534274 C8.48609879,3.23510081 8.4116129,3.18982863 8.41590726,3.16829637 C8.45422379,3.08210685 8.42168347,2.87904738 8.41590726,2.80050907 C8.74539315,2.71239315 8.85266129,2.44422278 8.96758065,2.55532258 C9.02888105,2.18754133 9.09018145,2.06494657 9.45795363,2.06494657 C9.50969758,1.95193548 9.32383065,1.85615323 9.39665323,1.81976008 C9.51925403,1.80443649 9.61309476,1.8120998 9.75683468,1.99790927 C9.80219758,2.05679032 9.81042339,1.91170766 9.85639113,1.89638105 C9.90235887,1.88105746 10.012379,1.88081855 10.0287399,1.80826815 C10.0460383,1.73355847 10.0709274,1.63587097 10.1322278,1.51327923 C10.1839415,1.41367137 10.2241633,1.55158972 10.270131,1.74697077 C10.5287601,1.75654536 11.1129738,1.81401714 11.3581452,1.88105746 C11.5420464,1.92894859 11.6646472,1.83316633 11.8408669,1.81401109 C11.971119,1.94426613 12.0937198,1.84657863 12.1626714,2.12432661 C12.2600202,2.27419657 12.4193347,2.13773891 12.4538407,2.18179234 C12.6588206,2.746875 13.3637298,2.36568145 13.4173488,2.3752621 C13.5073488,2.3752621 13.6173085,2.62792137 13.6881653,2.62164315 C13.8033266,2.60224899 13.7707258,2.52371673 13.8713105,2.55532258 C13.8444556,2.76794153 14.0686391,3.01313407 14.0686391,3.17210685 C14.0686391,3.17210685 14.1231956,3.19893145 14.1737601,3.15175403 C14.2242641,3.10460685 14.2707157,2.98344254 14.3157157,2.98630948 C14.4229839,3.00163609 14.4664415,3.01540827 14.5900706,3.03701613 C14.9224294,3.1505746 15.0917238,3.17618952 15.2208266,3.234375 C15.2808871,3.34427419 15.3390726,3.40055444 15.4607964,3.38002016 C15.561381,3.44758065 15.4880141,3.53606855 15.5474093,3.54181452 C15.6700101,3.48051411 15.7102319,3.41346774 15.8328024,3.47476815 C15.9554032,3.53606855 16.078004,3.65866935 16.1393044,3.78127016 C16.1393044,3.84254032 16.078004,4.08774194 16.1393044,4.45551411 C16.1699395,4.57811492 16.1847883,4.6753125 16.3164919,4.88555444 C16.281502,5.10154234 16.4821875,5.46498992 16.4821875,5.55695565 C16.4821875,5.67952621 16.3844758,5.7427621 16.3231754,5.86533266 C16.568377,6.04923387 16.3231754,6.35570565 16.2006048,6.53960685 C17.1200504,6.72350806 16.6909778,7.09128024 17.4265222,6.90737903 C17.242621,7.33645161 17.3077319,7.30200605 17.4916331,7.73107863 C17.1238306,7.97628024 17.4840121,8.05094758 17.2388407,8.35741935 C17.2235081,8.37659274 17.3843649,8.6236996 17.6104234,8.6236996 C17.549123,9.11407258 17.3652218,8.93017137 17.4265222,9.66574597 C16.9438004,9.65618952 17.1391633,10.2155141 16.8135484,10.156119 C16.8326915,10.5066532 16.9993548,10.5373185 16.9361492,10.8916633 C16.6909778,10.9529637 16.6909778,10.9529637 16.568377,11.1368649 L16.3844758,11.0755645 C16.3231754,11.3820363 16.2006048,11.4433367 16.3844758,11.7498387 C16.3844758,11.7498387 16.1469556,11.7574899 16.078004,11.7498387 C16.0722278,11.8552016 16.1833669,11.8839315 16.2006048,11.9950101 C16.1910181,12.0390726 15.8519456,12.2325302 15.587631,12.2402117 C15.5186794,12.3915423 15.771502,12.5524597 15.7561996,12.6290625 C15.4688407,12.6845867 15.3424294,13.0370565 15.3424294,13.0370565 C15.3424294,13.0370565 15.4899194,13.0964516 15.4650302,13.1596573 C15.3865222,13.1021673 15.3424294,13.0983569 15.2198589,13.0983569 C15.1585585,13.1136895 15.0091633,13.0946069 14.8659073,13.3363609 C14.7086794,13.3882258 14.6344657,13.3694758 14.5151915,13.5271875 C14.4623891,13.3769456 14.3864516,13.5286089 14.2935786,13.5868851 C14.2007964,13.645252 14.0758065,13.7903226 14.0590222,13.7841532 C14.0628629,13.7419657 14.1165121,13.5887298 14.1165121,13.5887298 L13.8100101,13.6500302 C13.8100101,13.6500302 13.7963407,13.6513609 13.7722681,13.6538105 C13.7481653,13.6561996 13.7546069,13.4748992 13.6965121,13.4814617 C13.6384476,13.4880847 13.4722681,13.7094859 13.415625,13.7164113 C13.3590726,13.7233367 13.3411694,13.6459778 13.2924194,13.6527218 C13.2436996,13.6594657 13.1486794,13.88625 13.1141734,13.8922681 C13.0796673,13.8982863 12.9427923,13.7544254 12.8254839,13.774506 C12.2220665,13.9871673 12.1262601,13.3550504 12.0324194,13.7113306 C11.9060081,13.644254 11.9279032,13.6831754 11.7994355,13.7168347 C11.7174798,13.7379738 11.7100101,13.6084778 11.637127,13.6104738 C11.4913004,13.6145867 11.4989516,13.7525202 11.4194456,13.7113306 C11.3543649,13.4239718 10.9616129,13.4756855 10.9233266,13.3531149 C10.8921774,13.225252 11.0934677,13.2258569 11.1585786,13.139244 C11.2083569,13.014254 11.1065927,12.9668044 11.3085786,12.8462298 C11.5718347,12.6681653 11.420504,12.600998 11.4666532,12.4671774 C11.5492137,12.2739617 11.5496976,12.2267843 11.480746,12.0563105 C11.480746,12.0563105 11.2757661,11.5046371 11.2355444,11.5046371 C11.1129738,11.4701915 11.1129738,11.7076512 10.9328831,11.7728226 C10.5651109,11.8953931 9.91578629,11.4624798 9.80274194,11.4624798 C9.69934476,11.4644153 9.2203125,11.5759173 9.23839718,11.3370665 C9.16678427,11.5692944 8.90340726,11.391623 8.88716734,11.391623 C8.64196573,11.391623 8.73580645,11.5812702 8.57104839,11.5735887 C8.49632056,11.5486996 7.74163306,11.5046371 7.74163306,11.5046371 L7.74163306,11.6272379 L7.25126008,11.3820363 L6.8221875,11.2594657 C6.45441532,11.1368649 6.63831653,10.8303629 6.02534274,11.0142641 L6.02534274,10.6464919 L5.71887097,10.6464919 C5.84144153,9.91091734 5.71887097,10.2787198 5.65757056,9.60444556 L5.41236895,9.66574597 C5.16719758,9.33435484 5.75331653,9.39756048 5.22849798,9.17537298 C5.22849798,9.17537298 5.23805444,8.80947581 5.10589718,8.93017137 C5.07907258,8.94550403 5.16719758,9.11407258 5.16719758,9.11407258 C4.6768246,9.05277218 4.55422379,8.93017137 4.55422379,8.43979839 C4.55422379,8.43979839 4.95840726,8.49728831 4.92199597,8.43979839 C4.86453629,8.3478629 4.78983871,7.75022177 4.80323589,7.71 C4.79748992,7.62952621 5.17868952,7.4265121 5.10492944,7.23299395 C5.15186492,7.21575605 5.28976815,7.21388105 5.28976815,7.21388105"/>
  </g>
</svg>
